<mxfile host="app.diagrams.net" agent="Mozilla/5.0 (Windows NT 10.0; Win64; x64) AppleWebKit/537.36 (KHTML, like Gecko) Chrome/128.0.0.0 Safari/537.36 Edg/128.0.0.0" version="24.7.14">
  <diagram id="kgpKYQtTHZ0yAKxKKP6v" name="Page-1">
    <mxGraphModel dx="4181" dy="2021" grid="1" gridSize="10" guides="1" tooltips="1" connect="1" arrows="1" fold="1" page="1" pageScale="1" pageWidth="850" pageHeight="1100" math="0" shadow="0">
      <root>
        <mxCell id="0" />
        <mxCell id="1" parent="0" />
        <mxCell id="926gY-Zl9acdLC5khXVz-2" value="" style="shape=process;whiteSpace=wrap;html=1;backgroundOutline=1;size=0.3725806451612903;" vertex="1" parent="1">
          <mxGeometry x="-2260" y="-330" width="3100" height="790" as="geometry" />
        </mxCell>
        <mxCell id="926gY-Zl9acdLC5khXVz-3" value="&lt;b&gt;&lt;font style=&quot;font-size: 20px;&quot;&gt;APOLLO&lt;/font&gt;&lt;/b&gt;" style="text;html=1;align=center;verticalAlign=middle;whiteSpace=wrap;rounded=0;strokeColor=default;" vertex="1" parent="1">
          <mxGeometry x="-2090" y="-330" width="460" height="40" as="geometry" />
        </mxCell>
        <mxCell id="926gY-Zl9acdLC5khXVz-4" value="&lt;b&gt;&lt;font style=&quot;font-size: 20px;&quot;&gt;LSconductor&lt;/font&gt;&lt;/b&gt;" style="text;html=1;align=center;verticalAlign=middle;whiteSpace=wrap;rounded=0;strokeColor=default;" vertex="1" parent="1">
          <mxGeometry x="-970" y="-330" width="560" height="40" as="geometry" />
        </mxCell>
        <mxCell id="926gY-Zl9acdLC5khXVz-5" value="&lt;b&gt;&lt;font style=&quot;font-size: 20px;&quot;&gt;LSAria&lt;/font&gt;&lt;/b&gt;" style="text;html=1;align=center;verticalAlign=middle;whiteSpace=wrap;rounded=0;strokeColor=default;" vertex="1" parent="1">
          <mxGeometry x="170" y="-370" width="460" height="40" as="geometry" />
        </mxCell>
        <mxCell id="926gY-Zl9acdLC5khXVz-6" value="Cliente requisita&lt;span style=&quot;background-color: rgb(0, 204, 0);&quot;&gt; &lt;/span&gt;serviço" style="ellipse;whiteSpace=wrap;html=1;fillColor=#d5e8d4;strokeColor=#82b366;" vertex="1" parent="1">
          <mxGeometry x="-2238" y="-290" width="80" height="60" as="geometry" />
        </mxCell>
        <mxCell id="926gY-Zl9acdLC5khXVz-10" value="" style="edgeStyle=orthogonalEdgeStyle;rounded=0;orthogonalLoop=1;jettySize=auto;html=1;" edge="1" parent="1" source="926gY-Zl9acdLC5khXVz-7" target="926gY-Zl9acdLC5khXVz-9">
          <mxGeometry relative="1" as="geometry" />
        </mxCell>
        <mxCell id="926gY-Zl9acdLC5khXVz-7" value="&lt;font style=&quot;font-size: 12px;&quot;&gt;Cadastro da máquina no sistema&lt;/font&gt;" style="shape=parallelogram;perimeter=parallelogramPerimeter;whiteSpace=wrap;html=1;fixedSize=1;" vertex="1" parent="1">
          <mxGeometry x="-2251" y="-172" width="170" height="60" as="geometry" />
        </mxCell>
        <mxCell id="926gY-Zl9acdLC5khXVz-9" value="&lt;font style=&quot;font-size: 12px;&quot;&gt;Aberturada OS&lt;/font&gt;" style="shape=parallelogram;perimeter=parallelogramPerimeter;whiteSpace=wrap;html=1;fixedSize=1;" vertex="1" parent="1">
          <mxGeometry x="-2061" y="-172" width="120" height="60" as="geometry" />
        </mxCell>
        <mxCell id="926gY-Zl9acdLC5khXVz-15" value="" style="edgeStyle=orthogonalEdgeStyle;rounded=0;orthogonalLoop=1;jettySize=auto;html=1;" edge="1" parent="1" source="926gY-Zl9acdLC5khXVz-11" target="926gY-Zl9acdLC5khXVz-14">
          <mxGeometry relative="1" as="geometry" />
        </mxCell>
        <mxCell id="926gY-Zl9acdLC5khXVz-11" value="&lt;font style=&quot;font-size: 12px;&quot;&gt;Parametrização da OS&lt;/font&gt;" style="shape=parallelogram;perimeter=parallelogramPerimeter;whiteSpace=wrap;html=1;fixedSize=1;" vertex="1" parent="1">
          <mxGeometry x="-1920" y="-172" width="160" height="60" as="geometry" />
        </mxCell>
        <mxCell id="926gY-Zl9acdLC5khXVz-25" value="" style="edgeStyle=orthogonalEdgeStyle;rounded=0;orthogonalLoop=1;jettySize=auto;html=1;entryX=0;entryY=0;entryDx=0;entryDy=31;entryPerimeter=0;" edge="1" parent="1" source="926gY-Zl9acdLC5khXVz-14" target="926gY-Zl9acdLC5khXVz-24">
          <mxGeometry relative="1" as="geometry" />
        </mxCell>
        <mxCell id="926gY-Zl9acdLC5khXVz-14" value="Inicia integração com LS" style="shape=parallelogram;perimeter=parallelogramPerimeter;whiteSpace=wrap;html=1;fixedSize=1;" vertex="1" parent="1">
          <mxGeometry x="-1751" y="-172" width="181" height="60" as="geometry" />
        </mxCell>
        <mxCell id="926gY-Zl9acdLC5khXVz-19" value="" style="edgeStyle=orthogonalEdgeStyle;rounded=0;orthogonalLoop=1;jettySize=auto;html=1;" edge="1" parent="1" source="926gY-Zl9acdLC5khXVz-16" target="926gY-Zl9acdLC5khXVz-6">
          <mxGeometry relative="1" as="geometry" />
        </mxCell>
        <mxCell id="926gY-Zl9acdLC5khXVz-16" value="Cliente" style="shape=umlActor;verticalLabelPosition=bottom;verticalAlign=top;html=1;outlineConnect=0;" vertex="1" parent="1">
          <mxGeometry x="-2328" y="-290" width="30" height="60" as="geometry" />
        </mxCell>
        <mxCell id="926gY-Zl9acdLC5khXVz-28" value="" style="edgeStyle=orthogonalEdgeStyle;rounded=0;orthogonalLoop=1;jettySize=auto;html=1;" edge="1" parent="1" source="926gY-Zl9acdLC5khXVz-20" target="926gY-Zl9acdLC5khXVz-7">
          <mxGeometry relative="1" as="geometry" />
        </mxCell>
        <mxCell id="926gY-Zl9acdLC5khXVz-20" value="Técnico" style="shape=umlActor;verticalLabelPosition=bottom;verticalAlign=top;html=1;outlineConnect=0;" vertex="1" parent="1">
          <mxGeometry x="-2328" y="-180" width="30" height="60" as="geometry" />
        </mxCell>
        <mxCell id="926gY-Zl9acdLC5khXVz-27" value="" style="edgeStyle=orthogonalEdgeStyle;rounded=0;orthogonalLoop=1;jettySize=auto;html=1;exitX=0;exitY=0;exitDx=130;exitDy=31;exitPerimeter=0;" edge="1" parent="1" source="926gY-Zl9acdLC5khXVz-24" target="926gY-Zl9acdLC5khXVz-26">
          <mxGeometry relative="1" as="geometry" />
        </mxCell>
        <mxCell id="926gY-Zl9acdLC5khXVz-24" value="provavelmente executa PROC_INSERT_LS" style="shape=callout;whiteSpace=wrap;html=1;perimeter=calloutPerimeter;" vertex="1" parent="1">
          <mxGeometry x="-1530" y="-172" width="130" height="92" as="geometry" />
        </mxCell>
        <mxCell id="926gY-Zl9acdLC5khXVz-26" value="Existe orçamento vinculado a OS" style="rhombus;whiteSpace=wrap;html=1;" vertex="1" parent="1">
          <mxGeometry x="-1350" y="-192" width="130" height="100" as="geometry" />
        </mxCell>
        <mxCell id="926gY-Zl9acdLC5khXVz-30" value="" style="endArrow=classic;html=1;rounded=0;exitX=1;exitY=0.5;exitDx=0;exitDy=0;entryX=0;entryY=0.5;entryDx=0;entryDy=0;" edge="1" parent="1" source="926gY-Zl9acdLC5khXVz-9" target="926gY-Zl9acdLC5khXVz-11">
          <mxGeometry width="50" height="50" relative="1" as="geometry">
            <mxPoint x="-1570" y="-10" as="sourcePoint" />
            <mxPoint x="-1520" y="-60" as="targetPoint" />
            <Array as="points" />
          </mxGeometry>
        </mxCell>
        <mxCell id="926gY-Zl9acdLC5khXVz-31" value="&lt;b&gt;PAYLOAD&lt;/b&gt;&lt;div&gt;&lt;br&gt;&lt;/div&gt;&lt;div&gt;Faturamento&lt;/div&gt;&lt;div&gt;Realizado&lt;/div&gt;" style="shape=note;whiteSpace=wrap;html=1;backgroundOutline=1;darkOpacity=0.05;" vertex="1" parent="1">
          <mxGeometry x="-1140" y="-292" width="90" height="92" as="geometry" />
        </mxCell>
        <mxCell id="926gY-Zl9acdLC5khXVz-43" style="edgeStyle=orthogonalEdgeStyle;rounded=0;orthogonalLoop=1;jettySize=auto;html=1;exitX=0;exitY=0;exitDx=100;exitDy=65;exitPerimeter=0;" edge="1" parent="1" source="926gY-Zl9acdLC5khXVz-32">
          <mxGeometry relative="1" as="geometry">
            <mxPoint x="-940" y="-150" as="targetPoint" />
            <Array as="points">
              <mxPoint x="-1040" y="-40" />
              <mxPoint x="-1020" y="-40" />
              <mxPoint x="-1020" y="-150" />
            </Array>
          </mxGeometry>
        </mxCell>
        <mxCell id="926gY-Zl9acdLC5khXVz-32" value="&lt;b&gt;PAYLOAD&lt;/b&gt;&lt;div&gt;&lt;br&gt;&lt;/div&gt;&lt;div&gt;&lt;br&gt;&lt;/div&gt;&lt;div&gt;Faturamento Orçado&lt;/div&gt;" style="shape=note;whiteSpace=wrap;html=1;backgroundOutline=1;darkOpacity=0.05;" vertex="1" parent="1">
          <mxGeometry x="-1140" y="-90" width="100" height="100" as="geometry" />
        </mxCell>
        <mxCell id="926gY-Zl9acdLC5khXVz-33" style="edgeStyle=orthogonalEdgeStyle;rounded=0;orthogonalLoop=1;jettySize=auto;html=1;exitX=1;exitY=0;exitDx=0;exitDy=0;entryX=0;entryY=0.5;entryDx=0;entryDy=0;entryPerimeter=0;" edge="1" parent="1" source="926gY-Zl9acdLC5khXVz-26" target="926gY-Zl9acdLC5khXVz-31">
          <mxGeometry relative="1" as="geometry" />
        </mxCell>
        <mxCell id="926gY-Zl9acdLC5khXVz-35" value="NAO" style="edgeLabel;html=1;align=center;verticalAlign=middle;resizable=0;points=[];" vertex="1" connectable="0" parent="926gY-Zl9acdLC5khXVz-33">
          <mxGeometry x="0.0395" relative="1" as="geometry">
            <mxPoint as="offset" />
          </mxGeometry>
        </mxCell>
        <mxCell id="926gY-Zl9acdLC5khXVz-34" style="edgeStyle=orthogonalEdgeStyle;rounded=0;orthogonalLoop=1;jettySize=auto;html=1;exitX=1;exitY=1;exitDx=0;exitDy=0;entryX=0;entryY=0.5;entryDx=0;entryDy=0;entryPerimeter=0;" edge="1" parent="1" source="926gY-Zl9acdLC5khXVz-26" target="926gY-Zl9acdLC5khXVz-32">
          <mxGeometry relative="1" as="geometry" />
        </mxCell>
        <mxCell id="926gY-Zl9acdLC5khXVz-36" value="SIM" style="edgeLabel;html=1;align=center;verticalAlign=middle;resizable=0;points=[];" vertex="1" connectable="0" parent="926gY-Zl9acdLC5khXVz-34">
          <mxGeometry x="0.5426" y="2" relative="1" as="geometry">
            <mxPoint as="offset" />
          </mxGeometry>
        </mxCell>
        <mxCell id="926gY-Zl9acdLC5khXVz-45" value="" style="edgeStyle=orthogonalEdgeStyle;rounded=0;orthogonalLoop=1;jettySize=auto;html=1;" edge="1" parent="1" source="926gY-Zl9acdLC5khXVz-38" target="926gY-Zl9acdLC5khXVz-44">
          <mxGeometry relative="1" as="geometry" />
        </mxCell>
        <mxCell id="926gY-Zl9acdLC5khXVz-38" value="API" style="ellipse;shape=cloud;whiteSpace=wrap;html=1;" vertex="1" parent="1">
          <mxGeometry x="-950" y="-190" width="120" height="80" as="geometry" />
        </mxCell>
        <mxCell id="926gY-Zl9acdLC5khXVz-42" style="edgeStyle=orthogonalEdgeStyle;rounded=0;orthogonalLoop=1;jettySize=auto;html=1;exitX=0;exitY=0;exitDx=90;exitDy=61;exitPerimeter=0;" edge="1" parent="1" source="926gY-Zl9acdLC5khXVz-31" target="926gY-Zl9acdLC5khXVz-38">
          <mxGeometry relative="1" as="geometry">
            <mxPoint x="-950" y="-150" as="targetPoint" />
            <Array as="points">
              <mxPoint x="-1020" y="-231" />
              <mxPoint x="-1020" y="-150" />
            </Array>
          </mxGeometry>
        </mxCell>
        <mxCell id="926gY-Zl9acdLC5khXVz-52" style="edgeStyle=orthogonalEdgeStyle;rounded=0;orthogonalLoop=1;jettySize=auto;html=1;exitX=1;exitY=0.5;exitDx=0;exitDy=0;entryX=0;entryY=0.5;entryDx=0;entryDy=0;" edge="1" parent="1" source="926gY-Zl9acdLC5khXVz-44" target="926gY-Zl9acdLC5khXVz-50">
          <mxGeometry relative="1" as="geometry" />
        </mxCell>
        <mxCell id="926gY-Zl9acdLC5khXVz-44" value="Chamado aberto no LS&amp;nbsp;" style="shape=parallelogram;perimeter=parallelogramPerimeter;whiteSpace=wrap;html=1;fixedSize=1;" vertex="1" parent="1">
          <mxGeometry x="-790" y="-180" width="160" height="60" as="geometry" />
        </mxCell>
        <mxCell id="926gY-Zl9acdLC5khXVz-60" style="edgeStyle=orthogonalEdgeStyle;rounded=0;orthogonalLoop=1;jettySize=auto;html=1;exitX=0.5;exitY=1;exitDx=0;exitDy=0;entryX=1;entryY=0.5;entryDx=0;entryDy=0;" edge="1" parent="1" source="926gY-Zl9acdLC5khXVz-46" target="926gY-Zl9acdLC5khXVz-58">
          <mxGeometry relative="1" as="geometry">
            <Array as="points">
              <mxPoint x="-410" y="120" />
            </Array>
          </mxGeometry>
        </mxCell>
        <mxCell id="926gY-Zl9acdLC5khXVz-46" value="Define o &quot;Grupo&quot; no chamado: elétrico ou Mecânico" style="shape=parallelogram;perimeter=parallelogramPerimeter;whiteSpace=wrap;html=1;fixedSize=1;" vertex="1" parent="1">
          <mxGeometry x="-510" y="-20" width="200" height="60" as="geometry" />
        </mxCell>
        <mxCell id="926gY-Zl9acdLC5khXVz-51" style="edgeStyle=orthogonalEdgeStyle;rounded=0;orthogonalLoop=1;jettySize=auto;html=1;exitX=0.5;exitY=1;exitDx=0;exitDy=0;entryX=0.5;entryY=0;entryDx=0;entryDy=0;" edge="1" parent="1" source="926gY-Zl9acdLC5khXVz-50" target="926gY-Zl9acdLC5khXVz-46">
          <mxGeometry relative="1" as="geometry">
            <Array as="points">
              <mxPoint x="-410" y="-110" />
            </Array>
          </mxGeometry>
        </mxCell>
        <mxCell id="926gY-Zl9acdLC5khXVz-54" value="NÃO" style="edgeLabel;html=1;align=center;verticalAlign=middle;resizable=0;points=[];" vertex="1" connectable="0" parent="926gY-Zl9acdLC5khXVz-51">
          <mxGeometry x="-0.2839" y="-3" relative="1" as="geometry">
            <mxPoint x="28" as="offset" />
          </mxGeometry>
        </mxCell>
        <mxCell id="926gY-Zl9acdLC5khXVz-56" style="edgeStyle=orthogonalEdgeStyle;rounded=0;orthogonalLoop=1;jettySize=auto;html=1;exitX=0.5;exitY=1;exitDx=0;exitDy=0;entryX=0.573;entryY=0.003;entryDx=0;entryDy=0;entryPerimeter=0;" edge="1" parent="1" source="926gY-Zl9acdLC5khXVz-50" target="926gY-Zl9acdLC5khXVz-55">
          <mxGeometry relative="1" as="geometry">
            <Array as="points">
              <mxPoint x="-625" y="-110" />
              <mxPoint x="-625" y="-20" />
            </Array>
          </mxGeometry>
        </mxCell>
        <mxCell id="926gY-Zl9acdLC5khXVz-57" value="SIM" style="edgeLabel;html=1;align=center;verticalAlign=middle;resizable=0;points=[];" vertex="1" connectable="0" parent="926gY-Zl9acdLC5khXVz-56">
          <mxGeometry x="0.3031" relative="1" as="geometry">
            <mxPoint y="-19" as="offset" />
          </mxGeometry>
        </mxCell>
        <mxCell id="926gY-Zl9acdLC5khXVz-50" value="Entrega Técnica?" style="rhombus;whiteSpace=wrap;html=1;" vertex="1" parent="1">
          <mxGeometry x="-550" y="-190" width="80" height="80" as="geometry" />
        </mxCell>
        <mxCell id="926gY-Zl9acdLC5khXVz-59" style="edgeStyle=orthogonalEdgeStyle;rounded=0;orthogonalLoop=1;jettySize=auto;html=1;exitX=0.5;exitY=1;exitDx=0;exitDy=0;entryX=0;entryY=0.5;entryDx=0;entryDy=0;" edge="1" parent="1" source="926gY-Zl9acdLC5khXVz-55" target="926gY-Zl9acdLC5khXVz-58">
          <mxGeometry relative="1" as="geometry">
            <Array as="points">
              <mxPoint x="-640" y="120" />
            </Array>
          </mxGeometry>
        </mxCell>
        <mxCell id="926gY-Zl9acdLC5khXVz-55" value="Define o &quot;Tipo de Serviço&quot; como Entrega Técnica" style="shape=parallelogram;perimeter=parallelogramPerimeter;whiteSpace=wrap;html=1;fixedSize=1;" vertex="1" parent="1">
          <mxGeometry x="-730" y="-20" width="180" height="60" as="geometry" />
        </mxCell>
        <mxCell id="926gY-Zl9acdLC5khXVz-58" value="Cria ação externa" style="shape=parallelogram;perimeter=parallelogramPerimeter;whiteSpace=wrap;html=1;fixedSize=1;" vertex="1" parent="1">
          <mxGeometry x="-590" y="90" width="130" height="60" as="geometry" />
        </mxCell>
      </root>
    </mxGraphModel>
  </diagram>
</mxfile>
